<mxfile host="app.diagrams.net" modified="2020-08-20T01:52:59.339Z" agent="5.0 (X11; Linux x86_64) AppleWebKit/537.36 (KHTML, like Gecko) Chrome/84.0.4147.125 Safari/537.36" etag="r57iKh9N-yT9AaiOWqay" version="13.5.6" type="github">
  <diagram id="RLLrKowjkvJ5-pVF0AS_" name="Page-1">
    <mxGraphModel dx="1634" dy="924" grid="1" gridSize="10" guides="1" tooltips="1" connect="1" arrows="1" fold="1" page="1" pageScale="1" pageWidth="827" pageHeight="1169" math="0" shadow="0">
      <root>
        <mxCell id="0" />
        <mxCell id="1" parent="0" />
        <mxCell id="QU_pMX3XEdPqZatpJcun-5" value="" style="edgeStyle=orthogonalEdgeStyle;rounded=0;orthogonalLoop=1;jettySize=auto;html=1;" edge="1" parent="1" source="QU_pMX3XEdPqZatpJcun-1" target="QU_pMX3XEdPqZatpJcun-3">
          <mxGeometry relative="1" as="geometry" />
        </mxCell>
        <mxCell id="QU_pMX3XEdPqZatpJcun-1" value="START" style="rounded=1;whiteSpace=wrap;html=1;fillColor=#FF3333;" vertex="1" parent="1">
          <mxGeometry x="435" y="60" width="60" height="30" as="geometry" />
        </mxCell>
        <mxCell id="QU_pMX3XEdPqZatpJcun-2" value="Declaration and initialization of variables" style="rounded=0;whiteSpace=wrap;html=1;fillColor=#FFB366;" vertex="1" parent="1">
          <mxGeometry x="418" y="110" width="94" height="60" as="geometry" />
        </mxCell>
        <mxCell id="QU_pMX3XEdPqZatpJcun-6" style="edgeStyle=orthogonalEdgeStyle;rounded=0;orthogonalLoop=1;jettySize=auto;html=1;exitX=0.25;exitY=1;exitDx=0;exitDy=0;entryX=0.5;entryY=0;entryDx=0;entryDy=0;" edge="1" parent="1" source="QU_pMX3XEdPqZatpJcun-3" target="QU_pMX3XEdPqZatpJcun-4">
          <mxGeometry relative="1" as="geometry" />
        </mxCell>
        <mxCell id="QU_pMX3XEdPqZatpJcun-3" value="Signal" style="whiteSpace=wrap;html=1;aspect=fixed;fillColor=#FFB366;" vertex="1" parent="1">
          <mxGeometry x="440" y="190" width="50" height="50" as="geometry" />
        </mxCell>
        <mxCell id="QU_pMX3XEdPqZatpJcun-8" value="" style="edgeStyle=orthogonalEdgeStyle;rounded=0;orthogonalLoop=1;jettySize=auto;html=1;" edge="1" parent="1" source="QU_pMX3XEdPqZatpJcun-4" target="QU_pMX3XEdPqZatpJcun-7">
          <mxGeometry relative="1" as="geometry" />
        </mxCell>
        <mxCell id="QU_pMX3XEdPqZatpJcun-4" value="Do" style="whiteSpace=wrap;html=1;aspect=fixed;fillColor=#FFB366;" vertex="1" parent="1">
          <mxGeometry x="445" y="260" width="40" height="40" as="geometry" />
        </mxCell>
        <mxCell id="QU_pMX3XEdPqZatpJcun-7" value="Interactive" style="rhombus;whiteSpace=wrap;html=1;fillColor=#3399FF;" vertex="1" parent="1">
          <mxGeometry x="427" y="320" width="76" height="60" as="geometry" />
        </mxCell>
        <mxCell id="QU_pMX3XEdPqZatpJcun-18" style="edgeStyle=orthogonalEdgeStyle;rounded=0;orthogonalLoop=1;jettySize=auto;html=1;exitX=0.5;exitY=1;exitDx=0;exitDy=0;entryX=1;entryY=0;entryDx=0;entryDy=0;" edge="1" parent="1" source="QU_pMX3XEdPqZatpJcun-13" target="QU_pMX3XEdPqZatpJcun-50">
          <mxGeometry relative="1" as="geometry">
            <Array as="points">
              <mxPoint x="621" y="380" />
            </Array>
          </mxGeometry>
        </mxCell>
        <mxCell id="QU_pMX3XEdPqZatpJcun-13" value="print MAXIO~$&amp;nbsp;" style="whiteSpace=wrap;html=1;fillColor=#FFB366;" vertex="1" parent="1">
          <mxGeometry x="591" y="330" width="60" height="40" as="geometry" />
        </mxCell>
        <mxCell id="QU_pMX3XEdPqZatpJcun-21" value="" style="edgeStyle=orthogonalEdgeStyle;rounded=0;orthogonalLoop=1;jettySize=auto;html=1;exitX=0.5;exitY=1;exitDx=0;exitDy=0;" edge="1" parent="1" source="QU_pMX3XEdPqZatpJcun-16" target="QU_pMX3XEdPqZatpJcun-20">
          <mxGeometry relative="1" as="geometry">
            <mxPoint x="537.0000000000002" y="500" as="sourcePoint" />
          </mxGeometry>
        </mxCell>
        <mxCell id="QU_pMX3XEdPqZatpJcun-16" value="read_line (getline)" style="whiteSpace=wrap;html=1;fillColor=#FFB366;" vertex="1" parent="1">
          <mxGeometry x="507.5" y="440" width="60" height="50" as="geometry" />
        </mxCell>
        <mxCell id="QU_pMX3XEdPqZatpJcun-20" value="EOF" style="rhombus;whiteSpace=wrap;html=1;fillColor=#3399FF;" vertex="1" parent="1">
          <mxGeometry x="512.5" y="510" width="50" height="40" as="geometry" />
        </mxCell>
        <mxCell id="QU_pMX3XEdPqZatpJcun-22" value="" style="endArrow=classic;html=1;" edge="1" parent="1">
          <mxGeometry relative="1" as="geometry">
            <mxPoint x="503" y="349.65999999999997" as="sourcePoint" />
            <mxPoint x="591" y="350" as="targetPoint" />
          </mxGeometry>
        </mxCell>
        <mxCell id="QU_pMX3XEdPqZatpJcun-23" value="yes" style="edgeLabel;resizable=0;html=1;align=center;verticalAlign=middle;" connectable="0" vertex="1" parent="QU_pMX3XEdPqZatpJcun-22">
          <mxGeometry relative="1" as="geometry" />
        </mxCell>
        <mxCell id="QU_pMX3XEdPqZatpJcun-24" value="" style="endArrow=classic;html=1;exitX=0.5;exitY=1;exitDx=0;exitDy=0;entryX=0;entryY=0.25;entryDx=0;entryDy=0;" edge="1" parent="1" source="QU_pMX3XEdPqZatpJcun-7" target="QU_pMX3XEdPqZatpJcun-50">
          <mxGeometry relative="1" as="geometry">
            <mxPoint x="451" y="430" as="sourcePoint" />
            <mxPoint x="517" y="413" as="targetPoint" />
            <Array as="points">
              <mxPoint x="465" y="394" />
            </Array>
          </mxGeometry>
        </mxCell>
        <mxCell id="QU_pMX3XEdPqZatpJcun-25" value="no" style="edgeLabel;resizable=0;html=1;align=center;verticalAlign=middle;" connectable="0" vertex="1" parent="QU_pMX3XEdPqZatpJcun-24">
          <mxGeometry relative="1" as="geometry" />
        </mxCell>
        <mxCell id="QU_pMX3XEdPqZatpJcun-39" value="" style="edgeStyle=orthogonalEdgeStyle;rounded=0;orthogonalLoop=1;jettySize=auto;html=1;" edge="1" parent="1" source="QU_pMX3XEdPqZatpJcun-28" target="QU_pMX3XEdPqZatpJcun-38">
          <mxGeometry relative="1" as="geometry" />
        </mxCell>
        <mxCell id="QU_pMX3XEdPqZatpJcun-28" value="line_converted&lt;br&gt;(Change of &#39;\n&#39; to &#39;\0&#39;)" style="whiteSpace=wrap;html=1;fillColor=#FFB366;" vertex="1" parent="1">
          <mxGeometry x="477" y="580" width="120" height="40" as="geometry" />
        </mxCell>
        <mxCell id="QU_pMX3XEdPqZatpJcun-32" value="" style="endArrow=classic;html=1;entryX=0.5;entryY=0;entryDx=0;entryDy=0;exitX=0.5;exitY=1;exitDx=0;exitDy=0;" edge="1" parent="1" source="QU_pMX3XEdPqZatpJcun-20" target="QU_pMX3XEdPqZatpJcun-28">
          <mxGeometry relative="1" as="geometry">
            <mxPoint x="407" y="555" as="sourcePoint" />
            <mxPoint x="507" y="555" as="targetPoint" />
          </mxGeometry>
        </mxCell>
        <mxCell id="QU_pMX3XEdPqZatpJcun-33" value="no" style="edgeLabel;resizable=0;html=1;align=center;verticalAlign=middle;" connectable="0" vertex="1" parent="QU_pMX3XEdPqZatpJcun-32">
          <mxGeometry relative="1" as="geometry" />
        </mxCell>
        <mxCell id="QU_pMX3XEdPqZatpJcun-44" value="" style="edgeStyle=orthogonalEdgeStyle;rounded=0;orthogonalLoop=1;jettySize=auto;html=1;" edge="1" parent="1" source="QU_pMX3XEdPqZatpJcun-38" target="QU_pMX3XEdPqZatpJcun-43">
          <mxGeometry relative="1" as="geometry" />
        </mxCell>
        <mxCell id="QU_pMX3XEdPqZatpJcun-38" value="tokens&lt;br&gt;(split line_converted in tokens)" style="whiteSpace=wrap;html=1;fillColor=#FFB366;" vertex="1" parent="1">
          <mxGeometry x="482.5" y="640" width="110" height="40" as="geometry" />
        </mxCell>
        <mxCell id="QU_pMX3XEdPqZatpJcun-43" value="status&lt;br&gt;(are buil-ins?)" style="rhombus;whiteSpace=wrap;html=1;fillColor=#3399FF;" vertex="1" parent="1">
          <mxGeometry x="490" y="702.5" width="95.5" height="75" as="geometry" />
        </mxCell>
        <mxCell id="QU_pMX3XEdPqZatpJcun-87" style="edgeStyle=orthogonalEdgeStyle;rounded=0;orthogonalLoop=1;jettySize=auto;html=1;entryX=1;entryY=0.5;entryDx=0;entryDy=0;" edge="1" parent="1" source="QU_pMX3XEdPqZatpJcun-45" target="QU_pMX3XEdPqZatpJcun-50">
          <mxGeometry relative="1" as="geometry">
            <Array as="points">
              <mxPoint x="679" y="400" />
            </Array>
          </mxGeometry>
        </mxCell>
        <mxCell id="QU_pMX3XEdPqZatpJcun-45" value="execute other built-in" style="whiteSpace=wrap;html=1;fillColor=#FFB366;" vertex="1" parent="1">
          <mxGeometry x="640" y="832.5" width="77" height="35" as="geometry" />
        </mxCell>
        <mxCell id="QU_pMX3XEdPqZatpJcun-47" value="" style="endArrow=classic;html=1;exitX=1;exitY=0.5;exitDx=0;exitDy=0;" edge="1" parent="1" source="QU_pMX3XEdPqZatpJcun-52">
          <mxGeometry relative="1" as="geometry">
            <mxPoint x="487" y="780" as="sourcePoint" />
            <mxPoint x="510" y="850" as="targetPoint" />
            <Array as="points" />
          </mxGeometry>
        </mxCell>
        <mxCell id="QU_pMX3XEdPqZatpJcun-48" value="no" style="edgeLabel;resizable=0;html=1;align=center;verticalAlign=middle;" connectable="0" vertex="1" parent="QU_pMX3XEdPqZatpJcun-47">
          <mxGeometry relative="1" as="geometry" />
        </mxCell>
        <mxCell id="QU_pMX3XEdPqZatpJcun-51" value="" style="edgeStyle=orthogonalEdgeStyle;rounded=0;orthogonalLoop=1;jettySize=auto;html=1;" edge="1" parent="1" source="QU_pMX3XEdPqZatpJcun-50" target="QU_pMX3XEdPqZatpJcun-16">
          <mxGeometry relative="1" as="geometry" />
        </mxCell>
        <mxCell id="QU_pMX3XEdPqZatpJcun-50" value="imput" style="shape=parallelogram;perimeter=parallelogramPerimeter;whiteSpace=wrap;html=1;fixedSize=1;fillColor=#66FF66;" vertex="1" parent="1">
          <mxGeometry x="503" y="380" width="69" height="40" as="geometry" />
        </mxCell>
        <mxCell id="QU_pMX3XEdPqZatpJcun-52" value="builtin &lt;br&gt;is exit?" style="rhombus;whiteSpace=wrap;html=1;fillColor=#3399FF;" vertex="1" parent="1">
          <mxGeometry x="497.75" y="810" width="80" height="80" as="geometry" />
        </mxCell>
        <mxCell id="QU_pMX3XEdPqZatpJcun-96" style="edgeStyle=orthogonalEdgeStyle;rounded=0;orthogonalLoop=1;jettySize=auto;html=1;entryX=0.5;entryY=0;entryDx=0;entryDy=0;exitX=0;exitY=0.5;exitDx=0;exitDy=0;" edge="1" parent="1" source="QU_pMX3XEdPqZatpJcun-55" target="QU_pMX3XEdPqZatpJcun-78">
          <mxGeometry relative="1" as="geometry">
            <Array as="points">
              <mxPoint x="444" y="940" />
            </Array>
          </mxGeometry>
        </mxCell>
        <mxCell id="QU_pMX3XEdPqZatpJcun-55" value="execute exit" style="whiteSpace=wrap;html=1;fillColor=#FFB366;" vertex="1" parent="1">
          <mxGeometry x="512" y="925" width="54" height="30" as="geometry" />
        </mxCell>
        <mxCell id="QU_pMX3XEdPqZatpJcun-57" value="" style="endArrow=classic;html=1;entryX=0.5;entryY=0;entryDx=0;entryDy=0;exitX=0.5;exitY=1;exitDx=0;exitDy=0;" edge="1" parent="1" source="QU_pMX3XEdPqZatpJcun-52" target="QU_pMX3XEdPqZatpJcun-55">
          <mxGeometry relative="1" as="geometry">
            <mxPoint x="472" y="910" as="sourcePoint" />
            <mxPoint x="492" y="830" as="targetPoint" />
          </mxGeometry>
        </mxCell>
        <mxCell id="QU_pMX3XEdPqZatpJcun-58" value="yes" style="edgeLabel;resizable=0;html=1;align=center;verticalAlign=middle;" connectable="0" vertex="1" parent="QU_pMX3XEdPqZatpJcun-57">
          <mxGeometry relative="1" as="geometry" />
        </mxCell>
        <mxCell id="QU_pMX3XEdPqZatpJcun-59" value="" style="endArrow=classic;html=1;entryX=0.5;entryY=0;entryDx=0;entryDy=0;exitX=0.5;exitY=1;exitDx=0;exitDy=0;" edge="1" parent="1" source="QU_pMX3XEdPqZatpJcun-43" target="QU_pMX3XEdPqZatpJcun-52">
          <mxGeometry relative="1" as="geometry">
            <mxPoint x="392.5" y="820" as="sourcePoint" />
            <mxPoint x="492.5" y="820" as="targetPoint" />
          </mxGeometry>
        </mxCell>
        <mxCell id="QU_pMX3XEdPqZatpJcun-60" value="yes" style="edgeLabel;resizable=0;html=1;align=center;verticalAlign=middle;" connectable="0" vertex="1" parent="QU_pMX3XEdPqZatpJcun-59">
          <mxGeometry relative="1" as="geometry" />
        </mxCell>
        <mxCell id="QU_pMX3XEdPqZatpJcun-68" style="edgeStyle=orthogonalEdgeStyle;rounded=0;orthogonalLoop=1;jettySize=auto;html=1;exitX=0.5;exitY=1;exitDx=0;exitDy=0;entryX=0.5;entryY=0;entryDx=0;entryDy=0;" edge="1" parent="1" source="QU_pMX3XEdPqZatpJcun-62" target="QU_pMX3XEdPqZatpJcun-66">
          <mxGeometry relative="1" as="geometry" />
        </mxCell>
        <mxCell id="QU_pMX3XEdPqZatpJcun-62" value="path_command&lt;br&gt;(get environment variable)" style="whiteSpace=wrap;html=1;fillColor=#FFB366;" vertex="1" parent="1">
          <mxGeometry x="220.5" y="721.25" width="99" height="42.5" as="geometry" />
        </mxCell>
        <mxCell id="QU_pMX3XEdPqZatpJcun-64" value="" style="endArrow=classic;html=1;" edge="1" parent="1" target="QU_pMX3XEdPqZatpJcun-62">
          <mxGeometry relative="1" as="geometry">
            <mxPoint x="490" y="742" as="sourcePoint" />
            <mxPoint x="620" y="740" as="targetPoint" />
          </mxGeometry>
        </mxCell>
        <mxCell id="QU_pMX3XEdPqZatpJcun-65" value="no" style="edgeLabel;resizable=0;html=1;align=center;verticalAlign=middle;" connectable="0" vertex="1" parent="QU_pMX3XEdPqZatpJcun-64">
          <mxGeometry relative="1" as="geometry" />
        </mxCell>
        <mxCell id="QU_pMX3XEdPqZatpJcun-70" value="" style="edgeStyle=orthogonalEdgeStyle;rounded=0;orthogonalLoop=1;jettySize=auto;html=1;" edge="1" parent="1" source="QU_pMX3XEdPqZatpJcun-66" target="QU_pMX3XEdPqZatpJcun-69">
          <mxGeometry relative="1" as="geometry" />
        </mxCell>
        <mxCell id="QU_pMX3XEdPqZatpJcun-66" value="srearch_program" style="whiteSpace=wrap;html=1;fillColor=#FFB366;" vertex="1" parent="1">
          <mxGeometry x="220" y="790" width="99.5" height="25" as="geometry" />
        </mxCell>
        <mxCell id="QU_pMX3XEdPqZatpJcun-72" value="" style="edgeStyle=orthogonalEdgeStyle;rounded=0;orthogonalLoop=1;jettySize=auto;html=1;" edge="1" parent="1" source="QU_pMX3XEdPqZatpJcun-69" target="QU_pMX3XEdPqZatpJcun-71">
          <mxGeometry relative="1" as="geometry" />
        </mxCell>
        <mxCell id="QU_pMX3XEdPqZatpJcun-69" value="status:&lt;br&gt;execute program" style="whiteSpace=wrap;html=1;fillColor=#FFB366;" vertex="1" parent="1">
          <mxGeometry x="235.13" y="837.5" width="69.25" height="47.5" as="geometry" />
        </mxCell>
        <mxCell id="QU_pMX3XEdPqZatpJcun-71" value="status?" style="rhombus;whiteSpace=wrap;html=1;fillColor=#3399FF;" vertex="1" parent="1">
          <mxGeometry x="240" y="905" width="59.51" height="50" as="geometry" />
        </mxCell>
        <mxCell id="QU_pMX3XEdPqZatpJcun-78" value="END" style="rounded=1;whiteSpace=wrap;html=1;fillColor=#FF3333;" vertex="1" parent="1">
          <mxGeometry x="414" y="1000" width="60" height="30" as="geometry" />
        </mxCell>
        <mxCell id="QU_pMX3XEdPqZatpJcun-88" value="" style="endArrow=classic;html=1;entryX=0;entryY=0.5;entryDx=0;entryDy=0;exitX=1;exitY=0.5;exitDx=0;exitDy=0;" edge="1" parent="1" source="QU_pMX3XEdPqZatpJcun-52" target="QU_pMX3XEdPqZatpJcun-45">
          <mxGeometry relative="1" as="geometry">
            <mxPoint x="410" y="780" as="sourcePoint" />
            <mxPoint x="510" y="780" as="targetPoint" />
          </mxGeometry>
        </mxCell>
        <mxCell id="QU_pMX3XEdPqZatpJcun-89" value="no" style="edgeLabel;resizable=0;html=1;align=center;verticalAlign=middle;" connectable="0" vertex="1" parent="QU_pMX3XEdPqZatpJcun-88">
          <mxGeometry relative="1" as="geometry" />
        </mxCell>
        <mxCell id="QU_pMX3XEdPqZatpJcun-90" value="" style="endArrow=classic;html=1;exitX=0;exitY=0.5;exitDx=0;exitDy=0;entryX=0;entryY=0.75;entryDx=0;entryDy=0;" edge="1" parent="1" source="QU_pMX3XEdPqZatpJcun-71" target="QU_pMX3XEdPqZatpJcun-50">
          <mxGeometry relative="1" as="geometry">
            <mxPoint x="90" y="760" as="sourcePoint" />
            <mxPoint x="320" y="630" as="targetPoint" />
            <Array as="points">
              <mxPoint x="160" y="930" />
              <mxPoint x="160" y="408" />
            </Array>
          </mxGeometry>
        </mxCell>
        <mxCell id="QU_pMX3XEdPqZatpJcun-91" value="yes" style="edgeLabel;resizable=0;html=1;align=center;verticalAlign=middle;" connectable="0" vertex="1" parent="QU_pMX3XEdPqZatpJcun-90">
          <mxGeometry relative="1" as="geometry">
            <mxPoint y="145" as="offset" />
          </mxGeometry>
        </mxCell>
        <mxCell id="QU_pMX3XEdPqZatpJcun-93" value="" style="endArrow=classic;html=1;entryX=0;entryY=0.5;entryDx=0;entryDy=0;" edge="1" parent="1" target="QU_pMX3XEdPqZatpJcun-78">
          <mxGeometry relative="1" as="geometry">
            <mxPoint x="270" y="960" as="sourcePoint" />
            <mxPoint x="200" y="850" as="targetPoint" />
            <Array as="points">
              <mxPoint x="270" y="1015" />
            </Array>
          </mxGeometry>
        </mxCell>
        <mxCell id="QU_pMX3XEdPqZatpJcun-94" value="Label" style="edgeLabel;resizable=0;html=1;align=center;verticalAlign=middle;" connectable="0" vertex="1" parent="QU_pMX3XEdPqZatpJcun-93">
          <mxGeometry relative="1" as="geometry" />
        </mxCell>
        <mxCell id="QU_pMX3XEdPqZatpJcun-97" value="" style="endArrow=classic;html=1;entryX=1;entryY=0.5;entryDx=0;entryDy=0;" edge="1" parent="1" target="QU_pMX3XEdPqZatpJcun-78">
          <mxGeometry relative="1" as="geometry">
            <mxPoint x="690" y="530" as="sourcePoint" />
            <mxPoint x="490" y="1010" as="targetPoint" />
            <Array as="points">
              <mxPoint x="750" y="530" />
              <mxPoint x="750" y="1015" />
            </Array>
          </mxGeometry>
        </mxCell>
        <mxCell id="QU_pMX3XEdPqZatpJcun-98" value="yes" style="edgeLabel;resizable=0;html=1;align=center;verticalAlign=middle;" connectable="0" vertex="1" parent="QU_pMX3XEdPqZatpJcun-97">
          <mxGeometry relative="1" as="geometry">
            <mxPoint y="-151" as="offset" />
          </mxGeometry>
        </mxCell>
        <mxCell id="QU_pMX3XEdPqZatpJcun-101" value="" style="shape=link;html=1;" edge="1" parent="1">
          <mxGeometry width="100" relative="1" as="geometry">
            <mxPoint x="670" y="530" as="sourcePoint" />
            <mxPoint x="691" y="530" as="targetPoint" />
          </mxGeometry>
        </mxCell>
        <mxCell id="QU_pMX3XEdPqZatpJcun-103" value="" style="endArrow=none;html=1;exitX=1;exitY=0.5;exitDx=0;exitDy=0;" edge="1" parent="1" source="QU_pMX3XEdPqZatpJcun-20">
          <mxGeometry width="50" height="50" relative="1" as="geometry">
            <mxPoint x="620" y="590" as="sourcePoint" />
            <mxPoint x="670" y="530" as="targetPoint" />
          </mxGeometry>
        </mxCell>
      </root>
    </mxGraphModel>
  </diagram>
</mxfile>
